<svg width="9300" height="10695" viewBox="0 0 9300 10695" fill="none" xmlns="http://www.w3.org/2000/svg">
<path d="M4649.5 3840.95C2705.95 3840.95 1400.9 5201.76 1130.39 6854.33H8168.61C7805.9 5121.85 6593.05 3840.95 4649.5 3840.95Z" fill="#FBC225"/>
<path d="M6747.43 3470.56C6765.85 3372.21 6583.44 3232.54 6583.44 3232.54C6703.68 3236.56 7073.83 3456.73 7073.83 3456.73C6580.92 2638.12 5358.19 2774.78 4808.44 2945.43C4917.41 2965.84 4941.64 3083.29 4941.64 3083.29C4959.23 3153.19 5703.98 3336.99 5717.82 3396.51C5717.87 3397.33 5717.92 3398.15 5717.97 3398.97C5718.07 3398.18 5718.02 3397.36 5717.82 3396.51C5707.78 3228.68 5647.93 3221.89 5525.24 3166.68C5730.78 3164.46 5957.56 3313.36 6082.98 3431.25C6136.38 3392.2 5972.03 3246.35 5826.59 3157.42C6064.83 3202.04 6343.42 3381.93 6375.12 3452.65C6358.22 3296.79 6289.2 3283.86 6197.83 3205.67C6359.25 3235.9 6549.63 3271.56 6747.43 3470.56Z" fill="#F4F4F4"/>
<path d="M6935.34 1998.83C6882.24 1899.22 6617.69 1907.66 6617.69 1907.66C6729.58 1824.76 7221.52 1752.09 7221.52 1752.09C6193.51 1387.4 5181.68 2386.25 4804.27 2931.26C4917.58 2870.87 5022.91 2956.6 5022.91 2956.6C5088.47 3005.35 5894.29 2631.5 5949.09 2673.82C5949.72 2674.5 5950.34 2675.19 5950.97 2675.88C5950.5 2675.11 5949.87 2674.42 5949.09 2673.82C5820.87 2533.63 5761.77 2570.7 5611.33 2610.38C5796.14 2460.7 6107.48 2428.48 6304.88 2441.88C6325.6 2369.2 6073.04 2359.23 5878.03 2385.66C6125.75 2253.61 6506.07 2211.37 6585 2250.7C6459.05 2125.95 6387.28 2164.21 6248.93 2161.21C6416.77 2071.74 6614.72 1966.23 6935.34 1998.83Z" fill="#F4F4F4"/>
<path d="M4584.89 938.265C4688.98 929.655 4814.96 1139.66 4814.96 1139.66C4823.38 1011.09 4633.42 592.037 4633.42 592.037C5432.17 1208.93 5162.2 2496.44 4927.37 3063.08C4917.58 2944.68 4798.12 2905.71 4798.12 2905.71C4727.35 2879.14 4614.39 2065.02 4554.01 2043.6C4553.17 2043.46 4552.32 2043.32 4551.47 2043.17C4552.31 2043.15 4553.15 2043.3 4554.01 2043.6C4727.3 2073.1 4728.08 2137.64 4772.59 2274.54C4796.42 2055.79 4665.48 1797.48 4556.16 1650.64C4602.31 1598.11 4736.6 1789.57 4813.76 1954.5C4792.35 1695.65 4634.65 1378.66 4564.51 1336.97C4724.65 1372.43 4730.85 1447.43 4802.51 1553.54C4788 1378.15 4770.89 1171.32 4584.89 938.265Z" fill="#F4F4F4"/>
<path d="M3450.19 2151.31C3498.04 2082.18 3693.03 2111.18 3693.03 2111.18C3617.38 2040.22 3259.68 1944.16 3259.68 1944.16C4051.58 1762.75 4714.26 2588.73 4946.62 3024.39C4867.98 2969.97 4782.69 3024.34 4782.69 3024.34C4729.99 3054.77 4165.97 2708.89 4121.79 2735.49C4121.27 2735.94 4120.75 2736.4 4120.22 2736.85C4120.64 2736.32 4121.16 2735.87 4121.79 2735.49C4228.71 2642.8 4269.24 2675.3 4377.13 2717.6C4253.27 2590.98 4025.71 2540.37 3878.51 2533.3C3869.43 2477.75 4057.14 2492.09 4199.15 2528.41C4027.23 2409.42 3749.49 2345.47 3687.71 2367.77C3791.62 2286.32 3841.43 2320.79 3944.05 2330.47C3827.56 2249.84 3690.19 2154.76 3450.19 2151.31Z" fill="#F4F4F4"/>
<path d="M5878.54 4451.14C5932.93 4409.78 5892.46 4141.54 5892.46 4141.54C5978.97 4234.78 6123.65 4690.32 6123.65 4690.32C6399.78 3599.16 5259.25 3196.33 4785.16 2876.33C4856.59 2970.26 4769.46 2990.82 4769.46 2990.82C4753.34 3043.3 5168.36 3587.36 5154.4 3630.25C5154.05 3630.83 5153.7 3631.4 5153.34 3631.98C5153.82 3631.54 5154.17 3630.97 5154.4 3630.25C5216.6 3528.45 5175.53 3479.32 5108.56 3355.55C5260.22 3509.81 5364.63 3765.12 5407.61 3926.3C5463 3944.75 5438.34 3686.7 5368.65 3526.66C5524.82 3732.01 5619.1 4095.63 5612.95 4159.37C5665.34 4058.95 5655.35 3947.77 5620.84 3834.67C5726.66 3973.81 5816.2 4189.58 5878.54 4451.14Z" fill="#F4F4F4"/>
<path d="M2907.07 10050.1C2781.72 6107.3 3925.96 4076.27 4957.22 2839.92L5104.05 2970.43C4389.74 3498.3 2859.68 6324.3 3355.85 10063.2L2907.07 10050.1Z" fill="#F4F4F4"/>
<path d="M2597.68 3995.77C2580.93 3958.14 2637.32 3888.1 2637.32 3888.1C2591.5 3899.27 2470.88 4016.24 2470.88 4016.24C2579.88 3651.61 3063.23 3608.64 3291.27 3632.74C3251.4 3649.52 3253.63 3698.13 3253.63 3698.13C3253.74 3727.32 2985.57 3859.64 2986.1 3884.41C2986.16 3884.74 2986.22 3885.07 2986.29 3885.4C2986.17 3885.09 2986.11 3884.76 2986.1 3884.41C2973.47 3816.89 2995.81 3809.43 3037.53 3777.72C2958.32 3793.19 2885.8 3870.43 2849.18 3927.27C2824.82 3916 2873.65 3844.94 2920.81 3798.02C2833.63 3834.71 2744.24 3928.39 2739 3959.02C2730.18 3895.72 2755.44 3885.09 2782.87 3846.74C2723.81 3871.6 2654.14 3900.92 2597.68 3995.77Z" fill="#F4F4F4"/>
<path d="M2380.84 3425.68C2391.46 3381.86 2493.97 3364.17 2493.97 3364.17C2442.82 3340.12 2246.62 3350.37 2246.62 3350.37C2605.87 3123.6 3092.88 3440.16 3291.47 3626.78C3241.99 3611.78 3209.94 3654.24 3209.94 3654.24C3189.53 3678.84 2843.1 3594.35 2826.2 3615.53C2826.03 3615.85 2825.85 3616.17 2825.68 3616.5C2825.79 3616.15 2825.96 3615.83 2826.2 3615.53C2861.7 3549.6 2888.06 3559.63 2949.78 3563.44C2864.04 3518.64 2741.22 3530.61 2666.67 3551.64C2651.57 3524.4 2747.65 3500.34 2825.2 3495.33C2717.02 3462.55 2566.71 3476.02 2540.23 3497.93C2576.38 3438.32 2607.72 3447.82 2660.6 3435.61C2587.3 3413.4 2500.86 3387.21 2380.84 3425.68Z" fill="#F4F4F4"/>
<path d="M3179.99 2816.99C3139.14 2821.85 3111.35 2915.36 3111.35 2915.36C3095.49 2864.92 3127.32 2683.22 3127.32 2683.22C2880.96 2992.01 3111.21 3482.33 3257.14 3688.9C3249.27 3641.06 3291.35 3616.06 3291.35 3616.06C3315.94 3599.87 3279.36 3267.25 3300.46 3253.93C3300.77 3253.81 3301.08 3253.68 3301.39 3253.56C3301.07 3253.62 3300.76 3253.74 3300.46 3253.93C3236.76 3279.44 3242.8 3305.16 3239.15 3363.13C3208.5 3278.07 3233.44 3164.96 3261.02 3097.89C3238.13 3080.68 3205.33 3167.48 3191.88 3239.18C3174.67 3134.58 3204.13 2996.02 3226.99 2973.86C3168.93 3000.71 3173.92 3031.01 3156.81 3078.89C3145.15 3008.02 3131.4 2924.44 3179.99 2816.99Z" fill="#F4F4F4"/>
<path d="M3735.31 3208.93C3710.13 3185.25 3638.04 3212.3 3638.04 3212.3C3660.14 3178.07 3788.17 3111.42 3788.17 3111.42C3466.01 3102.32 3292.48 3483.39 3245.99 3675.06C3270.86 3647.17 3308.99 3662 3308.99 3662C3332.23 3669.9 3515.01 3487.53 3534.6 3494.59C3534.85 3494.73 3535.09 3494.87 3535.34 3495.01C3535.13 3494.83 3534.88 3494.69 3534.6 3494.59C3484.4 3466.25 3472.02 3482.4 3434.71 3507.8C3469.87 3447.6 3552.36 3409.38 3608.23 3394.86C3606.26 3372.05 3535.53 3392.69 3484.53 3418.43C3538.9 3357.45 3639.36 3309.92 3665.3 3313.88C3617.36 3289.76 3601.6 3307.43 3563.12 3319.44C3599.96 3278.12 3643.41 3229.4 3735.31 3208.93Z" fill="#F4F4F4"/>
<path d="M3027.97 4316.38C3003 4304.26 2992.2 4194.42 2992.2 4194.42C2968.11 4238.36 2957.27 4430.96 2957.27 4430.96C2743.93 4019.18 3142.68 3768.29 3293.44 3603.36C3275.22 3646.39 3310.72 3647.63 3310.72 3647.63C3322.08 3667.21 3216.03 3916.5 3225.61 3932.44C3225.8 3932.64 3225.99 3932.84 3226.19 3933.04C3225.96 3932.91 3225.77 3932.71 3225.61 3932.44C3191.7 3896.92 3202.66 3874.13 3216.24 3819.59C3173.11 3892.98 3158.07 4002.78 3157.39 4070.27C3137.91 4082.02 3122.03 3977.48 3133.09 3908.31C3093.25 4002.37 3092.74 4154.41 3101.37 4179.26C3071.37 4143.51 3064.28 4098.52 3066.43 4050.82C3039.44 4114.55 3026.23 4207.44 3027.97 4316.38Z" fill="#F4F4F4"/>
<path d="M4489.18 6462.71C4364.21 5001.16 3666.14 4041.64 3302.05 3617.14L3291.72 3678.42C3291.72 3678.42 4372.42 5141.39 4287.35 6462.71L4489.18 6462.71Z" fill="#F4F4F4"/>
<path d="M3793.5 7813.58C3752.89 7813.58 3718.59 7796.88 3690.6 7763.48C3663.53 7730.08 3649.99 7685.4 3649.99 7629.44C3649.99 7598.75 3653.6 7565.81 3660.82 7530.6C3668.04 7495.4 3675.26 7462.01 3682.48 7430.41C3688.8 7406.95 3693.76 7385.28 3697.37 7365.43C3701.89 7344.66 3704.14 7327.97 3704.14 7315.33C3704.14 7299.08 3700.53 7287.35 3693.31 7280.13C3686.99 7272.91 3679.32 7269.3 3670.3 7269.3C3661.27 7269.3 3652.24 7272.46 3643.22 7278.77C3634.19 7284.19 3626.97 7292.76 3621.55 7304.5L3610.72 7300.44C3610.72 7263.43 3619.75 7231.84 3637.8 7205.66C3655.85 7179.49 3678.87 7159.63 3706.85 7146.09C3734.83 7132.55 3763.27 7125.78 3792.15 7125.78C3815.62 7125.78 3838.18 7130.74 3859.85 7140.67C3881.51 7149.7 3899.11 7164.14 3912.65 7184C3927.09 7203.86 3934.31 7228.68 3934.31 7258.46C3934.31 7276.52 3931.6 7298.18 3926.19 7323.45C3921.67 7348.73 3916.26 7374.9 3909.94 7401.98C3903.62 7429.96 3897.3 7458.4 3890.99 7487.28C3885.57 7515.26 3882.86 7540.08 3882.86 7561.75C3882.86 7581.6 3886.02 7597.85 3892.34 7610.49C3898.66 7623.12 3908.14 7629.44 3920.77 7629.44C3944.24 7629.44 3970.42 7607.78 3999.3 7564.45C4029.09 7521.13 4053.01 7462.91 4071.06 7389.8C4074.67 7375.35 4077.83 7360.01 4080.54 7343.76C4083.24 7327.52 4084.6 7310.82 4084.6 7293.67C4084.6 7280.13 4083.7 7266.59 4081.89 7253.05C4080.08 7238.61 4077.38 7224.17 4073.77 7209.72V7200.25C4088.21 7175.88 4106.71 7157.37 4129.28 7144.73C4152.75 7132.1 4176.21 7125.78 4199.68 7125.78C4231.27 7125.78 4259.71 7136.61 4284.98 7158.27C4310.25 7179.94 4322.89 7211.53 4322.89 7253.05C4322.89 7277.42 4318.38 7305.85 4309.35 7338.35C4300.32 7369.94 4290.4 7402.88 4279.56 7437.18C4268.73 7470.58 4258.8 7503.53 4249.78 7536.02C4240.75 7568.51 4236.24 7597.4 4236.24 7622.67C4236.24 7659.68 4249.33 7678.18 4275.5 7678.18C4282.72 7678.18 4291.3 7676.38 4301.23 7672.77C4312.06 7668.25 4321.99 7659.68 4331.01 7647.04L4340.49 7649.75C4340.49 7682.24 4331.46 7711.13 4313.41 7736.4C4296.26 7760.77 4274.15 7779.73 4247.07 7793.27C4219.99 7806.81 4192.01 7813.58 4163.13 7813.58C4126.12 7813.58 4092.72 7800.04 4062.93 7772.96C4034.05 7745.88 4019.61 7701.65 4019.61 7640.27V7637.57C3982.6 7700.75 3944.24 7745.88 3904.53 7772.96C3864.81 7800.04 3827.8 7813.58 3793.5 7813.58ZM4546.11 7813.58C4507.3 7813.58 4476.15 7800.49 4452.69 7774.31C4429.22 7748.14 4417.48 7712.48 4417.48 7667.35C4417.48 7642.98 4420.64 7611.39 4426.96 7572.58C4433.28 7532.86 4440.95 7489.54 4449.98 7442.6C4459.91 7394.76 4469.39 7346.47 4478.41 7297.73C4487.44 7248.08 4495.11 7200.25 4501.43 7154.21C4507.75 7108.18 4510.91 7067.56 4510.91 7032.36C4510.91 6988.13 4505.04 6956.09 4493.3 6936.23V6928.11C4513.16 6905.54 4534.83 6888.84 4558.29 6878.01C4581.76 6867.18 4604.78 6861.76 4627.34 6861.76C4661.64 6861.76 4690.98 6873.95 4715.35 6898.32C4739.72 6922.69 4751.91 6959.25 4751.91 7007.99C4751.91 7034.16 4748.29 7066.21 4741.07 7104.12C4733.85 7142.03 4725.28 7181.74 4715.35 7223.26C4705.42 7264.78 4695.49 7303.6 4685.56 7339.7C4702.71 7306.3 4725.28 7273.36 4753.26 7240.86C4782.14 7207.47 4814.64 7179.94 4850.74 7158.27C4887.75 7136.61 4926.11 7125.78 4965.83 7125.78C5010.96 7125.78 5041.19 7139.77 5056.54 7167.75C5072.79 7195.73 5080.91 7230.48 5080.91 7272C5080.91 7309.91 5076.85 7350.53 5068.72 7393.86C5060.6 7436.28 5052.48 7477.35 5044.35 7517.07C5036.23 7555.88 5032.17 7588.37 5032.17 7614.55C5032.17 7652.46 5043.45 7671.41 5066.02 7671.41C5075.95 7671.41 5084.52 7668.71 5091.74 7663.29C5099.87 7656.97 5105.73 7650.2 5109.34 7642.98L5118.82 7649.75C5118.82 7684.95 5110.25 7714.74 5093.1 7739.11C5075.95 7763.48 5053.83 7781.98 5026.75 7794.62C5000.58 7807.26 4973.5 7813.58 4945.52 7813.58C4908.51 7813.58 4875.11 7801.39 4845.33 7777.02C4815.54 7751.75 4800.65 7711.13 4800.65 7655.17C4800.65 7623.57 4804.71 7589.27 4812.83 7552.27C4821.86 7515.26 4830.43 7479.61 4838.56 7445.31C4846.68 7410.1 4850.74 7380.77 4850.74 7357.3C4850.74 7326.61 4839.91 7311.27 4818.25 7311.27C4798.39 7311.27 4776.73 7321.2 4753.26 7341.05C4729.79 7360.91 4709.03 7385.73 4690.98 7415.52C4673.83 7445.31 4662.55 7474.64 4657.13 7503.53C4655.32 7510.75 4654.42 7519.32 4654.42 7529.25C4654.42 7551.82 4657.58 7573.48 4663.9 7594.24C4671.12 7615 4674.73 7639.37 4674.73 7667.35C4674.73 7708.87 4663.9 7743.62 4642.24 7771.6C4620.57 7799.59 4588.53 7813.58 4546.11 7813.58ZM5683.64 7814.93C5652.05 7814.93 5624.52 7804.55 5601.05 7783.79C5577.58 7763.03 5565.85 7729.18 5565.85 7682.24C5565.85 7677.73 5565.85 7673.22 5565.85 7668.71C5565.85 7664.19 5566.3 7659.68 5567.2 7655.17C5540.12 7709.32 5509.44 7749.49 5475.14 7775.67C5441.74 7800.94 5407.89 7813.58 5373.59 7813.58C5342 7813.58 5312.21 7802.74 5284.23 7781.08C5256.25 7758.52 5233.69 7725.57 5216.54 7682.24C5199.39 7638.92 5190.81 7586.57 5190.81 7525.19C5190.81 7462.01 5199.39 7405.59 5216.54 7355.95C5234.59 7306.3 5258.06 7264.33 5286.94 7230.03C5315.82 7195.73 5347.42 7170.01 5381.72 7152.86C5416.01 7134.81 5449.41 7125.78 5481.91 7125.78C5518.01 7125.78 5550.5 7137.06 5579.39 7159.63C5608.27 7181.29 5628.13 7216.04 5638.96 7263.88C5641.67 7248.54 5643.47 7234.55 5644.38 7221.91C5646.18 7209.27 5647.09 7200.7 5647.09 7196.18C5647.99 7171.81 5660.17 7153.76 5683.64 7142.03C5708.01 7130.29 5734.64 7124.43 5763.52 7124.43C5788.8 7124.43 5812.72 7129.39 5835.28 7139.32C5857.85 7149.25 5873.19 7165.95 5881.31 7189.41L5884.02 7197.54C5873.19 7221.91 5862.36 7251.24 5851.53 7285.54C5840.7 7319.84 5830.77 7355.95 5821.74 7393.86C5812.72 7430.87 5805.49 7467.42 5800.08 7503.53C5794.66 7538.73 5791.96 7569.87 5791.96 7596.95C5791.96 7626.73 5795.11 7647.49 5801.43 7659.23C5807.75 7670.06 5815.42 7675.48 5824.45 7675.48C5839.79 7675.48 5853.79 7664.64 5866.42 7642.98L5877.25 7648.4C5877.25 7679.09 5867.32 7707.07 5847.47 7732.34C5827.61 7757.61 5802.79 7777.92 5773 7793.27C5743.21 7807.71 5713.43 7814.93 5683.64 7814.93ZM5462.95 7642.98C5486.42 7642.98 5512.14 7622.22 5540.12 7580.7C5569.01 7538.28 5593.83 7477.8 5614.59 7399.27C5616.4 7391.15 5618.2 7383.48 5620.01 7376.26C5621.81 7368.13 5623.17 7360.46 5624.07 7353.24C5609.63 7319.84 5594.28 7296.37 5578.03 7282.84C5562.69 7268.39 5547.35 7261.17 5532 7261.17C5509.44 7261.17 5488.22 7273.36 5468.37 7297.73C5449.41 7321.2 5433.62 7350.98 5420.98 7387.09C5409.24 7423.19 5403.38 7459.3 5403.38 7495.4C5403.38 7545.05 5408.79 7582.05 5419.63 7606.42C5431.36 7630.8 5445.8 7642.98 5462.95 7642.98ZM6113.45 7812.22C6080.05 7812.22 6049.82 7799.13 6022.74 7772.96C5995.66 7745.88 5982.12 7708.42 5982.12 7660.58C5982.12 7637.11 5985.28 7610.49 5991.6 7580.7C5997.91 7550.91 6004.68 7520.68 6011.91 7489.99C6020.03 7459.3 6027.25 7430.41 6033.57 7403.34C6039.89 7376.26 6043.05 7354.14 6043.05 7336.99C6043.05 7318.94 6039.44 7304.95 6032.21 7295.02C6024.99 7284.19 6015.52 7278.77 6003.78 7278.77C5988.44 7278.77 5971.74 7287.8 5953.69 7305.85L5945.56 7300.44C5944.66 7285.99 5947.82 7268.84 5955.04 7248.99C5962.26 7229.13 5973.09 7210.17 5987.53 7192.12C6002.88 7173.17 6022.29 7157.37 6045.75 7144.73C6069.22 7132.1 6097.2 7125.78 6129.7 7125.78C6177.54 7125.78 6212.74 7139.77 6235.3 7167.75C6258.77 7194.83 6270.51 7228.23 6270.51 7267.94C6270.51 7282.38 6269.15 7296.37 6266.44 7309.91C6285.4 7281.93 6308.87 7253.95 6336.85 7225.97C6364.83 7197.09 6395.52 7173.17 6428.92 7154.21C6463.22 7135.26 6498.42 7125.78 6534.52 7125.78C6576.95 7125.78 6605.83 7139.32 6621.17 7166.4C6636.52 7193.48 6644.19 7227.32 6644.19 7267.94C6644.19 7305.85 6640.13 7346.47 6632.01 7389.8C6623.88 7433.12 6615.76 7475.09 6607.63 7515.71C6599.51 7555.43 6595.45 7588.82 6595.45 7615.9C6595.45 7652.01 6605.83 7670.06 6626.59 7670.06C6637.42 7670.06 6646.9 7666.9 6655.02 7660.58C6663.15 7653.36 6668.56 7646.59 6671.27 7640.27L6680.75 7644.33C6680.75 7677.73 6671.27 7707.07 6652.31 7732.34C6634.26 7757.61 6611.24 7777.47 6583.26 7791.91C6555.28 7805.45 6526.85 7812.22 6497.97 7812.22C6462.76 7812.22 6431.62 7800.04 6404.55 7775.67C6377.47 7751.3 6363.93 7711.58 6363.93 7656.52C6363.93 7624.03 6367.99 7588.82 6376.11 7550.91C6385.14 7513 6393.71 7476.45 6401.84 7441.25C6409.96 7406.04 6414.02 7377.16 6414.02 7354.59C6414.02 7341.05 6411.31 7330.67 6405.9 7323.45C6401.39 7315.33 6392.81 7311.27 6380.17 7311.27C6359.41 7311.27 6336.4 7320.75 6311.12 7339.7C6286.75 7358.66 6265.54 7383.93 6247.49 7415.52C6230.34 7447.11 6221.76 7481.86 6221.76 7519.77C6221.76 7544.14 6224.47 7567.61 6229.89 7590.18C6236.21 7612.74 6239.37 7637.11 6239.37 7663.29C6239.37 7712.03 6226.73 7749.04 6201.46 7774.31C6176.18 7799.59 6146.85 7812.22 6113.45 7812.22ZM7039.45 7817.64C6973.56 7817.64 6918.95 7804.55 6875.63 7778.37C6832.3 7751.3 6799.81 7716.09 6778.15 7672.77C6756.48 7628.54 6745.65 7581.15 6745.65 7530.6C6745.65 7482.77 6754.68 7434.93 6772.73 7387.09C6791.68 7338.35 6818.76 7294.12 6853.97 7254.4C6890.07 7214.69 6933.4 7182.64 6983.94 7158.27C7035.39 7133.9 7093.16 7121.72 7157.25 7121.72C7236.68 7121.72 7294.44 7139.77 7330.55 7175.88C7367.56 7211.08 7386.06 7253.95 7386.06 7304.5C7386.06 7347.82 7374.33 7387.99 7350.86 7425C7328.29 7461.1 7298.05 7490.44 7260.14 7513C7222.23 7534.67 7180.71 7545.5 7135.58 7545.5C7112.11 7545.5 7088.19 7541.89 7063.82 7534.67C7039.45 7527.45 7015.53 7516.16 6992.07 7500.82C6996.58 7556.78 7012.83 7597.4 7040.81 7622.67C7068.79 7647.95 7102.19 7660.58 7141 7660.58C7168.08 7660.58 7195.16 7655.62 7222.23 7645.69C7249.31 7634.86 7274.13 7621.32 7296.7 7605.07C7320.17 7587.92 7338.22 7569.87 7350.86 7550.91L7360.33 7557.68C7360.33 7604.62 7350.41 7644.79 7330.55 7678.18C7311.59 7710.68 7286.32 7737.3 7254.73 7758.06C7223.14 7778.83 7188.39 7794.17 7150.48 7804.1C7113.47 7813.12 7076.46 7817.64 7039.45 7817.64ZM7070.59 7452.08C7099.48 7452.08 7122.95 7443.95 7141 7427.71C7159.05 7410.56 7172.59 7390.7 7181.62 7368.13C7190.64 7345.57 7195.16 7325.71 7195.16 7308.56C7195.16 7287.8 7189.29 7270.65 7177.55 7257.11C7165.82 7242.67 7149.57 7235.45 7128.81 7235.45C7112.57 7235.45 7094.51 7241.32 7074.66 7253.05C7055.7 7264.78 7038.55 7285.09 7023.21 7313.98C7007.86 7341.96 6997.93 7381.22 6993.42 7431.77C7022.3 7445.31 7048.03 7452.08 7070.59 7452.08Z" fill="#F4F4F4"/>
<path d="M4106.26 9455.61C4074.67 9455.61 4047.14 9445.23 4023.67 9424.47C4000.2 9403.71 3988.47 9369.86 3988.47 9322.93C3988.47 9318.42 3988.47 9313.9 3988.47 9309.39C3988.47 9304.88 3988.92 9300.36 3989.82 9295.85C3962.74 9350.01 3932.06 9390.17 3897.76 9416.35C3864.36 9441.62 3830.51 9454.26 3796.21 9454.26C3764.62 9454.26 3734.83 9443.43 3706.85 9421.77C3678.87 9399.2 3656.3 9366.25 3639.16 9322.93C3622.01 9279.6 3613.43 9227.25 3613.43 9165.87C3613.43 9102.69 3622.01 9046.28 3639.16 8996.63C3657.21 8946.99 3680.68 8905.02 3709.56 8870.72C3738.44 8836.42 3770.03 8810.69 3804.33 8793.54C3838.63 8775.49 3872.03 8766.46 3904.53 8766.46C3940.63 8766.46 3973.12 8777.75 4002.01 8800.31C4030.89 8821.97 4050.75 8856.73 4061.58 8904.56C4064.29 8889.22 4066.09 8875.23 4067 8862.59C4068.8 8849.96 4069.7 8841.38 4069.7 8836.87C4070.61 8812.5 4082.79 8794.44 4106.26 8782.71C4130.63 8770.98 4157.26 8765.11 4186.14 8765.11C4211.42 8765.11 4235.34 8770.07 4257.9 8780C4280.47 8789.93 4295.81 8806.63 4303.93 8830.1L4306.64 8838.22C4295.81 8862.59 4284.98 8891.93 4274.15 8926.23C4263.32 8960.53 4253.39 8996.63 4244.36 9034.54C4235.34 9071.55 4228.11 9108.1 4222.7 9144.21C4217.28 9179.41 4214.58 9210.55 4214.58 9237.63C4214.58 9267.42 4217.73 9288.18 4224.05 9299.91C4230.37 9310.74 4238.04 9316.16 4247.07 9316.16C4262.41 9316.16 4276.4 9305.33 4289.04 9283.66L4299.87 9289.08C4299.87 9319.77 4289.94 9347.75 4270.09 9373.02C4250.23 9398.3 4225.41 9418.61 4195.62 9433.95C4165.83 9448.39 4136.05 9455.61 4106.26 9455.61ZM3885.57 9283.66C3909.04 9283.66 3934.76 9262.9 3962.74 9221.38C3991.63 9178.96 4016.45 9118.48 4037.21 9039.96C4039.02 9031.83 4040.82 9024.16 4042.63 9016.94C4044.43 9008.82 4045.79 9001.14 4046.69 8993.92C4032.25 8960.53 4016.9 8937.06 4000.65 8923.52C3985.31 8909.08 3969.97 8901.86 3954.62 8901.86C3932.06 8901.86 3910.84 8914.04 3890.99 8938.41C3872.03 8961.88 3856.24 8991.67 3843.6 9027.77C3831.86 9063.88 3826 9099.98 3826 9136.09C3826 9185.73 3831.41 9222.74 3842.24 9247.11C3853.98 9271.48 3868.42 9283.66 3885.57 9283.66ZM4501.31 9723.69C4475.14 9723.69 4450.31 9718.73 4426.85 9708.8C4403.38 9699.77 4387.13 9685.78 4378.1 9666.83C4399.77 9574.76 4417.37 9493.07 4430.91 9421.77C4445.35 9350.46 4456.63 9286.82 4464.76 9230.86C4472.88 9174.9 4478.75 9123.9 4482.36 9077.87C4485.97 9030.93 4488.22 8985.8 4489.13 8942.47C4458.44 8944.28 4429.1 8947.44 4401.12 8951.95C4373.14 8955.56 4348.77 8960.98 4328.01 8968.2L4325.3 8958.72C4351.48 8932.55 4378.56 8910.88 4406.54 8893.73C4434.52 8875.68 4462.5 8861.24 4490.48 8850.41V8747.51C4490.48 8678.01 4504.47 8621.59 4532.45 8578.27C4560.43 8534.04 4596.09 8501.54 4639.41 8480.78C4683.64 8459.12 4729.22 8448.29 4776.16 8448.29C4838.44 8448.29 4884.93 8463.18 4915.61 8492.97C4947.21 8522.76 4963 8556.15 4963 8593.16C4963 8620.24 4954.43 8646.41 4937.28 8671.69C4921.03 8696.96 4896.21 8718.17 4862.81 8735.32C4829.41 8751.57 4787.44 8759.69 4736.9 8759.69C4751.34 8733.52 4762.17 8707.34 4769.39 8681.17C4777.51 8654.99 4781.58 8631.97 4781.58 8612.12C4781.58 8596.77 4779.32 8584.59 4774.81 8575.56C4770.29 8565.63 4763.97 8560.67 4755.85 8560.67C4738.7 8560.67 4722 8582.33 4705.76 8625.65C4690.41 8668.08 4682.74 8724.04 4682.74 8793.54V8819.27C4708.91 8818.36 4733.74 8818.82 4757.2 8820.62C4781.58 8822.43 4804.14 8824.23 4824.9 8826.04C4826.71 8832.35 4828.06 8839.12 4828.96 8846.35C4829.87 8853.57 4830.32 8860.79 4830.32 8868.01C4830.32 8881.55 4828.51 8895.09 4824.9 8908.63C4821.29 8922.17 4816.33 8936.16 4810.01 8950.6C4793.76 8948.79 4775.26 8946.99 4754.5 8945.18C4733.74 8943.38 4711.62 8942.02 4688.15 8941.12V8970.91C4688.15 9020.55 4685.9 9077.87 4681.38 9142.86C4677.77 9207.84 4670.55 9285.02 4659.72 9374.38C4648.89 9463.74 4632.19 9570.25 4609.63 9693.9C4581.64 9713.76 4545.54 9723.69 4501.31 9723.69ZM5351.77 9455.61C5320.18 9455.61 5292.65 9445.23 5269.18 9424.47C5245.71 9403.71 5233.98 9369.86 5233.98 9322.93C5233.98 9318.42 5233.98 9313.9 5233.98 9309.39C5233.98 9304.88 5234.43 9300.36 5235.33 9295.85C5208.25 9350.01 5177.56 9390.17 5143.26 9416.35C5109.87 9441.62 5076.02 9454.26 5041.72 9454.26C5010.13 9454.26 4980.34 9443.43 4952.36 9421.77C4924.38 9399.2 4901.81 9366.25 4884.66 9322.93C4867.51 9279.6 4858.94 9227.25 4858.94 9165.87C4858.94 9102.69 4867.51 9046.28 4884.66 8996.63C4902.72 8946.99 4926.18 8905.02 4955.07 8870.72C4983.95 8836.42 5015.54 8810.69 5049.84 8793.54C5084.14 8775.49 5117.54 8766.46 5150.03 8766.46C5186.14 8766.46 5218.63 8777.75 5247.52 8800.31C5276.4 8821.97 5296.26 8856.73 5307.09 8904.56C5309.8 8889.22 5311.6 8875.23 5312.51 8862.59C5314.31 8849.96 5315.21 8841.38 5315.21 8836.87C5316.12 8812.5 5328.3 8794.44 5351.77 8782.71C5376.14 8770.98 5402.77 8765.11 5431.65 8765.11C5456.93 8765.11 5480.84 8770.07 5503.41 8780C5525.98 8789.93 5541.32 8806.63 5549.44 8830.1L5552.15 8838.22C5541.32 8862.59 5530.49 8891.93 5519.66 8926.23C5508.83 8960.53 5498.9 8996.63 5489.87 9034.54C5480.84 9071.55 5473.62 9108.1 5468.21 9144.21C5462.79 9179.41 5460.08 9210.55 5460.08 9237.63C5460.08 9267.42 5463.24 9288.18 5469.56 9299.91C5475.88 9310.74 5483.55 9316.16 5492.58 9316.16C5507.92 9316.16 5521.91 9305.33 5534.55 9283.66L5545.38 9289.08C5545.38 9319.77 5535.45 9347.75 5515.6 9373.02C5495.74 9398.3 5470.92 9418.61 5441.13 9433.95C5411.34 9448.39 5381.56 9455.61 5351.77 9455.61ZM5131.08 9283.66C5154.55 9283.66 5180.27 9262.9 5208.25 9221.38C5237.14 9178.96 5261.96 9118.48 5282.72 9039.96C5284.52 9031.83 5286.33 9024.16 5288.14 9016.94C5289.94 9008.82 5291.29 9001.14 5292.2 8993.92C5277.76 8960.53 5262.41 8937.06 5246.16 8923.52C5230.82 8909.08 5215.47 8901.86 5200.13 8901.86C5177.56 8901.86 5156.35 8914.04 5136.5 8938.41C5117.54 8961.88 5101.74 8991.67 5089.11 9027.77C5077.37 9063.88 5071.51 9099.98 5071.51 9136.09C5071.51 9185.73 5076.92 9222.74 5087.75 9247.11C5099.49 9271.48 5113.93 9283.66 5131.08 9283.66ZM5781.58 9454.26C5749.08 9454.26 5720.2 9441.17 5694.93 9415C5669.65 9387.92 5657.02 9350.01 5657.02 9301.27C5657.02 9277.8 5659.73 9251.17 5665.14 9221.38C5670.56 9191.6 5676.88 9161.36 5684.1 9130.67C5691.32 9099.08 5697.64 9069.74 5703.05 9042.66C5708.47 9014.68 5711.17 8991.67 5711.17 8973.61C5711.17 8954.66 5707.56 8939.77 5700.34 8928.93C5694.02 8917.2 5685.45 8911.33 5674.62 8911.33C5657.47 8911.33 5639.87 8923.07 5621.82 8946.54L5613.69 8941.12C5612.79 8926.68 5615.95 8909.53 5623.17 8889.67C5630.39 8869.81 5641.67 8850.86 5657.02 8832.81C5672.36 8813.85 5691.77 8798.06 5715.24 8785.42C5739.61 8772.78 5768.04 8766.46 5800.53 8766.46C5848.37 8766.46 5883.12 8780.45 5904.79 8808.44C5926.45 8835.51 5937.28 8868.46 5937.28 8907.27C5937.28 8913.59 5936.83 8920.36 5935.93 8927.58C5935.93 8933.9 5935.48 8940.22 5934.57 8946.54C5967.07 8887.87 6000.92 8843.19 6036.12 8812.5C6072.22 8780.91 6105.62 8765.11 6136.31 8765.11C6165.19 8765.11 6186.4 8776.39 6199.94 8798.96C6213.48 8821.52 6220.25 8848.6 6220.25 8880.19C6220.25 8909.08 6214.38 8938.41 6202.65 8968.2C6191.82 8997.99 6175.12 9022.81 6152.56 9042.66C6130.89 9061.62 6104.27 9070.65 6072.67 9069.74L6067.26 9067.04C6066.36 9043.57 6058.68 9025.06 6044.24 9011.52C6029.8 8997.99 6013.55 8991.22 5995.5 8991.22C5971.13 8991.22 5948.11 9003.4 5926.45 9027.77C5905.69 9052.14 5895.31 9087.34 5895.31 9133.38C5895.31 9161.36 5898.47 9191.6 5904.79 9224.09C5911.1 9256.59 5914.26 9284.12 5914.26 9306.68C5914.26 9333.76 5907.95 9358.58 5895.31 9381.15C5882.67 9403.71 5866.43 9421.77 5846.57 9435.3C5826.71 9447.94 5805.05 9454.26 5781.58 9454.26Z" fill="#F4F4F4"/>
<path d="M1655.78 10134.3C1078.85 9568.91 611.541 8986.22 403.848 8605.45C294.232 8409.29 242.309 8236.22 242.309 8091.98C242.309 7890.06 357.694 7780.44 553.848 7780.44C721.157 7780.44 876.926 7884.29 1026.93 8057.37C1234.62 7913.14 1303.85 7653.52 1303.85 7399.67C1303.85 7186.21 1257.7 6995.83 1205.77 6874.67H0V6465.05L9300 6465.05V6718.54V6874.67L3344.32 6894.86L3070.76 8420.83L3204.77 10053.5H2919.24L2990.08 8528.56C2793.92 8574.72 2521.16 8645.83 2307.7 8645.83C2001.93 8645.83 1638.47 8588.14 1315.39 8420.83C1200 8507.37 1050 8582.37 876.927 8640.06C1153.85 9015.07 1546.16 9395.84 2007.7 9822.76L1655.78 10134.3ZM2301.93 8230.45C2521.16 8230.45 2788.15 8172.75 2990.08 8115.06L3209.15 6874.67H1678.85C1742.31 7041.98 1771.16 7226.6 1771.16 7457.37C1771.16 7711.21 1713.47 7930.45 1592.31 8115.06C1828.85 8201.6 2042.32 8230.45 2301.93 8230.45Z" fill="#F4F4F4"/>
</svg>
